<svg width="32" height="32" viewBox="0 0 32 32" fill="none" xmlns="http://www.w3.org/2000/svg">
<path d="M12 6C12 4.89543 12.8954 4 14 4H18C19.1046 4 20 4.89543 20 6V26C20 27.1046 19.1046 28 18 28H14C12.8954 28 12 27.1046 12 26V6Z" fill="black"/>
<path d="M21.3334 11.3333C21.3334 10.2287 22.2288 9.33331 23.3334 9.33331H27.3334C28.4379 9.33331 29.3334 10.2287 29.3334 11.3333V26C29.3334 27.1046 28.4379 28 27.3334 28H23.3334C22.2288 28 21.3334 27.1045 21.3334 26V11.3333Z" fill="black"/>
<path d="M2.66663 15.3333C2.66663 14.2287 3.56206 13.3333 4.66663 13.3333H8.66663C9.7712 13.3333 10.6666 14.2287 10.6666 15.3333V26C10.6666 27.1045 9.7712 28 8.66663 28H4.66663C3.56206 28 2.66663 27.1045 2.66663 26V15.3333Z" fill="black"/>
</svg>
