<svg width="16" height="16" viewBox="0 0 16 16" fill="none" xmlns="http://www.w3.org/2000/svg">
<path d="M6 4C6 2.89543 6.89543 2 8 2V2C9.10457 2 10 2.89543 10 4V12C10 13.1046 9.10457 14 8 14V14C6.89543 14 6 13.1046 6 12V4Z" fill="black"/>
<path d="M10.6666 6.66669C10.6666 5.56212 11.5621 4.66669 12.6666 4.66669V4.66669C13.7712 4.66669 14.6666 5.56212 14.6666 6.66669V12C14.6666 13.1046 13.7712 14 12.6666 14V14C11.5621 14 10.6666 13.1046 10.6666 12V6.66669Z" fill="black"/>
<path d="M1.33337 8.66669C1.33337 7.56212 2.2288 6.66669 3.33337 6.66669V6.66669C4.43794 6.66669 5.33337 7.56212 5.33337 8.66669V12C5.33337 13.1046 4.43794 14 3.33337 14V14C2.2288 14 1.33337 13.1046 1.33337 12V8.66669Z" fill="black"/>
</svg>
