<svg width="32" height="32" viewBox="0 0 32 32" fill="none" xmlns="http://www.w3.org/2000/svg">
<path d="M6.66699 13.333C8.1396 13.3332 9.33301 14.5273 9.33301 16C9.33301 17.4727 8.1396 18.6668 6.66699 18.667C5.19423 18.667 4 17.4728 4 16C4 14.5272 5.19423 13.333 6.66699 13.333ZM16 13.333C17.4728 13.333 18.667 14.5272 18.667 16C18.667 17.4728 17.4728 18.667 16 18.667C14.5272 18.667 13.333 17.4728 13.333 16C13.333 14.5272 14.5272 13.333 16 13.333ZM25.333 13.333C26.8058 13.333 28 14.5272 28 16C28 17.4728 26.8058 18.667 25.333 18.667C23.8604 18.6668 22.667 17.4727 22.667 16C22.667 14.5273 23.8604 13.3332 25.333 13.333Z" fill="black"/>
</svg>
