<svg width="16" height="16" viewBox="0 0 16 16" fill="none" xmlns="http://www.w3.org/2000/svg">
<path d="M3.33301 6.66699C4.06939 6.66699 4.66699 7.26362 4.66699 8C4.66699 8.73638 4.06939 9.33301 3.33301 9.33301C2.59678 9.33283 2 8.73627 2 8C2 7.26373 2.59678 6.66717 3.33301 6.66699ZM8 6.66699C8.73638 6.66699 9.33301 7.26362 9.33301 8C9.33301 8.73638 8.73638 9.33301 8 9.33301C7.26362 9.33301 6.66699 8.73638 6.66699 8C6.66699 7.26362 7.26362 6.66699 8 6.66699ZM12.667 6.66699C13.4032 6.66717 14 7.26373 14 8C14 8.73627 13.4032 9.33283 12.667 9.33301C11.9306 9.33301 11.333 8.73638 11.333 8C11.333 7.26362 11.9306 6.66699 12.667 6.66699Z" fill="black"/>
</svg>
