<svg width="16" height="16" viewBox="0 0 16 16" fill="none" xmlns="http://www.w3.org/2000/svg">
<path d="M9.65499 6.3451C11.0553 7.74687 11.0361 9.99426 9.66344 11.3745C9.66069 11.3775 9.65787 11.3804 9.65499 11.3832L8.07999 12.9582C6.69084 14.3474 4.43079 14.3472 3.04186 12.9582C1.65271 11.5693 1.65271 9.30901 3.04186 7.9201L3.91152 7.05044C4.14214 6.81982 4.53932 6.97309 4.55122 7.29901C4.56641 7.71438 4.64088 8.13166 4.77833 8.53465C4.82487 8.67111 4.79163 8.82205 4.68968 8.924L4.38296 9.23072C3.7261 9.88758 3.70548 10.9571 4.35588 11.6204C5.01269 12.2902 6.09228 12.2942 6.75413 11.6324L8.32913 10.0576C8.98985 9.39687 8.98709 8.32892 8.32913 7.67096C8.2424 7.58439 8.15501 7.51712 8.08676 7.47013C8.03847 7.43697 7.9986 7.39299 7.97034 7.34169C7.94207 7.29039 7.92618 7.23319 7.92394 7.17466C7.91465 6.92701 8.00242 6.67179 8.19812 6.47609L8.69158 5.98263C8.82099 5.85322 9.02398 5.83733 9.17403 5.94207C9.34585 6.06206 9.50679 6.19692 9.65499 6.3451Z" fill="black"/>
<path d="M12.9582 3.04179C11.5692 1.65283 9.30917 1.65264 7.92003 3.04179L6.34503 4.61679C6.34222 4.6196 6.33917 4.62264 6.33658 4.62545C4.96395 6.00574 4.9447 8.25313 6.34503 9.6549C6.49322 9.80308 6.65416 9.93795 6.82599 10.0579C6.97604 10.1626 7.17905 10.1467 7.30844 10.0174L7.8019 9.52391C7.9976 9.32821 8.08537 9.07299 8.07608 8.82534C8.07384 8.76681 8.05795 8.70962 8.02968 8.65832C8.00141 8.60703 7.96154 8.56305 7.91326 8.5299C7.845 8.4829 7.75764 8.41563 7.67088 8.32906C7.01292 7.6711 7.01016 6.60315 7.67088 5.94243L9.24589 4.36767C9.90773 3.70582 10.9873 3.7098 11.6441 4.37962C12.2945 5.04291 12.2739 6.11245 11.6171 6.7693L11.3103 7.07602C11.2084 7.17798 11.1751 7.32891 11.2217 7.46538C11.3591 7.86836 11.4336 8.28567 11.4488 8.70102C11.4607 9.02694 11.8579 9.18023 12.0885 8.94958L12.9582 8.07992C14.3473 6.69099 14.3473 4.43069 12.9582 3.04179Z" fill="black"/>
</svg>
