<svg width="32" height="32" viewBox="0 0 32 32" fill="none" xmlns="http://www.w3.org/2000/svg">
<path d="M19.31 12.6902C22.1106 15.4937 22.0722 19.9885 19.3269 22.7491C19.3214 22.755 19.3157 22.7608 19.31 22.7664L16.16 25.9164C13.3817 28.6947 8.86157 28.6943 6.08372 25.9164C3.30543 23.1386 3.30543 18.618 6.08372 15.8402L7.82305 14.1009C8.28428 13.6396 9.07863 13.9462 9.10244 14.598C9.13282 15.4288 9.28177 16.2633 9.55666 17.0693C9.64973 17.3422 9.58325 17.6441 9.37935 17.848L8.76591 18.4614C7.4522 19.7752 7.41097 21.9142 8.71177 23.2408C10.0254 24.5804 12.1846 24.5884 13.5083 23.2647L16.6583 20.1152C17.9797 18.7937 17.9742 16.6578 16.6583 15.3419C16.4848 15.1688 16.31 15.0342 16.1735 14.9403C16.0769 14.8739 15.9972 14.786 15.9407 14.6834C15.8841 14.5808 15.8524 14.4664 15.8479 14.3493C15.8293 13.854 16.0048 13.3436 16.3962 12.9522L17.3832 11.9653C17.642 11.7064 18.048 11.6747 18.3481 11.8841C18.6917 12.1241 19.0136 12.3938 19.31 12.6902Z" fill="black"/>
<path d="M25.9163 6.08357C23.1385 3.30567 18.6183 3.30528 15.8401 6.08357L12.6901 9.23358C12.6844 9.23919 12.6783 9.24529 12.6732 9.2509C9.92789 12.0115 9.8894 16.5063 12.6901 19.3098C12.9864 19.6062 13.3083 19.8759 13.652 20.1159C13.9521 20.3253 14.3581 20.2935 14.6169 20.0347L15.6038 19.0478C15.9952 18.6564 16.1707 18.146 16.1522 17.6507C16.1477 17.5336 16.1159 17.4192 16.0594 17.3166C16.0028 17.2141 15.9231 17.1261 15.8265 17.0598C15.69 16.9658 15.5153 16.8313 15.3418 16.6581C14.0258 15.3422 14.0203 13.2063 15.3418 11.8849L18.4918 8.73534C19.8155 7.41164 21.9746 7.41961 23.2883 8.75924C24.5891 10.0858 24.5479 12.2249 23.2341 13.5386L22.6207 14.152C22.4168 14.356 22.3503 14.6578 22.4434 14.9308C22.7183 15.7367 22.8672 16.5713 22.8976 17.402C22.9215 18.0539 23.7158 18.3605 24.177 17.8992L25.9163 16.1598C28.6946 13.382 28.6946 8.86138 25.9163 6.08357Z" fill="black"/>
</svg>
