<svg width="24" height="24" viewBox="0 0 24 24" fill="none" xmlns="http://www.w3.org/2000/svg">
<path fill-rule="evenodd" clip-rule="evenodd" d="M12.5525 3.04187C10.5493 2.84459 8.5393 3.34865 6.86597 4.46667C5.19275 5.58473 3.95914 7.2489 3.37476 9.17468C2.79051 11.1007 2.89177 13.1707 3.66187 15.0301C4.43203 16.8893 5.82336 18.425 7.59839 19.3739C9.37336 20.3225 11.4233 20.6258 13.3972 20.2333C15.3711 19.8405 17.1488 18.7754 18.4255 17.2196C19.7022 15.6637 20.3992 13.7125 20.3992 11.7001C20.3992 11.3139 20.0861 11.0008 19.7 11.0008H18.199C17.8128 11.0008 17.4998 11.3139 17.4998 11.7001C17.4998 13.0418 17.0345 14.3435 16.1834 15.3807C15.3323 16.4176 14.1475 17.1267 12.8318 17.3885C11.5157 17.6503 10.1489 17.4477 8.96558 16.8153C7.78254 16.1828 6.85505 15.1595 6.34156 13.9198C5.82823 12.6802 5.76068 11.3004 6.15015 10.0165C6.53979 8.73278 7.36201 7.62307 8.4773 6.8778C9.59275 6.13262 10.9325 5.79732 12.2673 5.92858C13.6029 6.06012 14.8529 6.65002 15.8015 7.59851C16.0749 7.87193 16.5183 7.87188 16.7916 7.59839L17.8524 6.5371C18.1253 6.26411 18.1252 5.82163 17.8523 5.5487C16.4291 4.12558 14.5554 3.23915 12.5525 3.04187Z" fill="black"/>
</svg>
