<svg width="32" height="32" viewBox="0 0 32 32" fill="none" xmlns="http://www.w3.org/2000/svg">
<path fill-rule="evenodd" clip-rule="evenodd" d="M16.7367 4.05582C14.0657 3.79278 11.3857 4.46486 9.15463 5.95556C6.92367 7.44631 5.27886 9.66521 4.49968 12.2329C3.72068 14.8009 3.8557 17.5609 4.88249 20.0402C5.90937 22.5191 7.76447 24.5667 10.1312 25.8319C12.4978 27.0967 15.2311 27.5011 17.863 26.9777C20.4948 26.454 22.865 25.0338 24.5674 22.9595C26.2696 20.885 27.1989 18.2833 27.1989 15.6001C27.1989 15.0852 26.7815 14.6678 26.2666 14.6678H24.2653C23.7504 14.6678 23.333 15.0852 23.333 15.6001C23.333 17.3891 22.7127 19.1247 21.5778 20.5076C20.4431 21.8901 18.8633 22.8356 17.1091 23.1847C15.3543 23.5338 13.5319 23.2636 11.9541 22.4204C10.3767 21.5771 9.14007 20.2126 8.45541 18.5597C7.77097 16.9069 7.6809 15.0672 8.2002 13.3553C8.71972 11.6437 9.81602 10.1641 11.3031 9.1704C12.7903 8.17682 14.5766 7.72975 16.3565 7.90478C18.1371 8.08016 19.8039 8.86669 21.0687 10.1313C21.4333 10.4959 22.0244 10.4958 22.3888 10.1312L23.8032 8.71613C24.167 8.35215 24.167 7.76217 23.8031 7.39827C21.9054 5.50078 19.4072 4.31887 16.7367 4.05582Z" fill="black"/>
</svg>
