<svg width="16" height="16" viewBox="0 0 16 16" fill="none" xmlns="http://www.w3.org/2000/svg">
<path fill-rule="evenodd" clip-rule="evenodd" d="M8.36833 2.02791C7.03284 1.89639 5.69286 2.23243 4.57731 2.97778C3.46183 3.72315 2.63943 4.8326 2.24984 6.11645C1.86034 7.40047 1.92785 8.78047 2.44125 10.0201C2.95469 11.2595 3.88224 12.2833 5.0656 12.9159C6.24891 13.5484 7.61554 13.7506 8.93148 13.4888C10.2474 13.227 11.4325 12.5169 12.2837 11.4797C13.1348 10.4425 13.5994 9.14165 13.5994 7.80005C13.5994 7.5426 13.3907 7.3339 13.1333 7.3339H12.1327C11.8752 7.3339 11.6665 7.5426 11.6665 7.80005C11.6665 8.69455 11.3563 9.56234 10.7889 10.2538C10.2215 10.9451 9.43166 11.4178 8.55453 11.5924C7.67716 11.7669 6.76593 11.6318 5.97705 11.2102C5.18836 10.7885 4.57003 10.1063 4.22771 9.27986C3.88549 8.45347 3.84045 7.53361 4.1001 6.67765C4.35986 5.82185 4.90801 5.08205 5.65153 4.5852C6.39517 4.08841 7.28831 3.86488 8.17823 3.95239C9.06857 4.04008 9.90193 4.43335 10.5343 5.06567C10.7166 5.24796 11.0122 5.24792 11.1944 5.06559L11.9016 4.35807C12.0835 4.17607 12.0835 3.88108 11.9015 3.69913C10.9527 2.75039 9.70362 2.15943 8.36833 2.02791Z" fill="black"/>
</svg>
