<svg width="16" height="16" viewBox="0 0 16 16" fill="none" xmlns="http://www.w3.org/2000/svg">
<path d="M3.33337 4.33336C3.33337 3.41288 4.07957 2.66669 5.00004 2.66669V2.66669C5.92052 2.66669 6.66671 3.41288 6.66671 4.33335V11.6667C6.66671 12.5872 5.92052 13.3334 5.00004 13.3334V13.3334C4.07957 13.3334 3.33337 12.5872 3.33337 11.6667V4.33336Z" fill="black"/>
<path d="M9.33337 4.33336C9.33337 3.41288 10.0796 2.66669 11 2.66669V2.66669C11.9205 2.66669 12.6667 3.41288 12.6667 4.33335V11.6667C12.6667 12.5872 11.9205 13.3334 11 13.3334V13.3334C10.0796 13.3334 9.33337 12.5872 9.33337 11.6667V4.33336Z" fill="black"/>
</svg>
