<svg width="32" height="32" viewBox="0 0 32 32" fill="none" xmlns="http://www.w3.org/2000/svg">
<path d="M6.66663 7.33332C6.66663 6.22875 7.56206 5.33331 8.66663 5.33331H11.3333C12.4379 5.33331 13.3333 6.22874 13.3333 7.33331V24.6666C13.3333 25.7712 12.4379 26.6666 11.3333 26.6666H8.66662C7.56205 26.6666 6.66663 25.7712 6.66663 24.6666V7.33332Z" fill="black"/>
<path d="M18.6666 7.33332C18.6666 6.22875 19.5621 5.33331 20.6666 5.33331H23.3333C24.4379 5.33331 25.3333 6.22874 25.3333 7.33331V24.6666C25.3333 25.7712 24.4379 26.6666 23.3333 26.6666H20.6666C19.5621 26.6666 18.6666 25.7712 18.6666 24.6666V7.33332Z" fill="black"/>
</svg>
