<svg width="24" height="24" viewBox="0 0 24 24" fill="none" xmlns="http://www.w3.org/2000/svg">
<path d="M17.7116 2.14956C18.1031 1.70302 18.7605 1.78687 18.8923 2.29995L20.6726 9.24233C20.8029 9.75159 20.3176 10.3041 19.7956 10.2414L12.6804 9.38687C12.1545 9.32345 11.9855 8.68301 12.3767 8.23647L14.1999 6.15542C13.3796 5.84665 12.4994 5.71231 11.6159 5.76675C10.3479 5.84492 9.13348 6.3078 8.13546 7.0939C7.13752 7.87998 6.40303 8.9518 6.02999 10.1662C5.65695 11.3806 5.66297 12.68 6.04757 13.8908C6.43214 15.1015 7.17701 16.166 8.18234 16.9425C9.1878 17.7191 10.4068 18.1704 11.6755 18.2365C12.944 18.3025 14.2024 17.9804 15.2829 17.3126C16.3635 16.6448 17.215 15.6633 17.7234 14.4992L20.2478 15.6007C19.5152 17.2786 18.2886 18.6939 16.7312 19.6564C15.1739 20.6187 13.3601 21.0827 11.5319 20.9875C9.70369 20.8922 7.94767 20.2422 6.49874 19.1232C5.04984 18.0042 3.97683 16.4696 3.42257 14.7248C2.86835 12.9799 2.85964 11.1076 3.39718 9.35757C3.93478 7.60749 4.99313 6.06266 6.43136 4.92983C7.86952 3.7971 9.6188 3.12943 11.446 3.01675C13.06 2.91725 14.6668 3.2554 16.0993 3.98843L17.7116 2.14956Z" fill="black"/>
</svg>
