<svg width="32" height="32" viewBox="0 0 32 32" fill="none" xmlns="http://www.w3.org/2000/svg">
<path d="M23.6155 2.86607C24.1374 2.27068 25.014 2.38248 25.1897 3.06659L27.5634 12.3231C27.7371 13.0021 27.0901 13.7388 26.3942 13.6551L16.9072 12.5158C16.206 12.4313 15.9807 11.5773 16.5022 10.982L18.9332 8.20722C17.8394 7.79552 16.6658 7.61641 15.4879 7.68899C13.7972 7.79322 12.178 8.41039 10.8473 9.45852C9.51669 10.5066 8.53737 11.9357 8.03999 13.5549C7.54261 15.1741 7.55063 16.9066 8.06343 18.521C8.57619 20.1353 9.56935 21.5547 10.9098 22.59C12.2504 23.6254 13.8757 24.2272 15.5673 24.3153C17.2587 24.4033 18.9365 23.9738 20.3772 23.0835C21.8181 22.1931 22.9533 20.8844 23.6311 19.3322L26.997 20.801C26.0203 23.0381 24.3847 24.9252 22.3082 26.2085C20.2318 27.4916 17.8134 28.1102 15.3759 27.9833C12.9383 27.8563 10.5969 26.9896 8.66499 25.4976C6.73313 24.0055 5.30244 21.9594 4.56343 19.633C3.82447 17.3066 3.81286 14.8101 4.52957 12.4767C5.24637 10.1433 6.6575 8.08354 8.57515 6.5731C10.4927 5.06279 12.8251 4.17257 15.2613 4.02232C17.4133 3.88965 19.5557 4.34053 21.4658 5.31789L23.6155 2.86607Z" fill="black"/>
</svg>
