<svg width="16" height="16" viewBox="0 0 16 16" fill="none" xmlns="http://www.w3.org/2000/svg">
<path d="M11.8078 1.43302C12.0687 1.13532 12.507 1.19122 12.5949 1.53328L13.7817 6.16154C13.8686 6.50104 13.545 6.86938 13.1971 6.82755L8.45359 6.25789C8.10302 6.21562 7.99033 5.78866 8.25111 5.49096L9.46661 4.10359C8.91971 3.89774 8.33291 3.80819 7.74395 3.84448C6.89861 3.89659 6.08899 4.20518 5.42364 4.72924C4.75834 5.2533 4.26868 5.96785 4.01999 6.77742C3.7713 7.58703 3.77532 8.45329 4.03171 9.26049C4.28809 10.0676 4.78467 10.7773 5.45489 11.295C6.1252 11.8127 6.93786 12.1136 7.78367 12.1576C8.62934 12.2016 9.46824 11.9869 10.1886 11.5417C10.909 11.0965 11.4767 10.4422 11.8156 9.66609L13.4985 10.4005C13.0101 11.519 12.1924 12.4626 11.1541 13.1042C10.1159 13.7458 8.90672 14.0551 7.68796 13.9916C6.46913 13.9281 5.29845 13.4948 4.33249 12.7488C3.36656 12.0028 2.65122 10.9797 2.28171 9.81648C1.91223 8.65327 1.90643 7.40504 2.26479 6.23836C2.62319 5.07164 3.32875 4.04175 4.28757 3.28654C5.24635 2.53138 6.41253 2.08627 7.63067 2.01115C8.70664 1.94481 9.77784 2.17025 10.7329 2.65893L11.8078 1.43302Z" fill="black"/>
</svg>
